<?xml version="1.0" encoding="UTF-8"?>
<!DOCTYPE svg PUBLIC "-//W3C//DTD SVG 1.1//EN" "http://www.w3.org/Graphics/SVG/1.1/DTD/svg11.dtd">
<svg xmlns="http://www.w3.org/2000/svg" version="1.1" width="2408px" height="1688px" style="shape-rendering:geometricPrecision; text-rendering:geometricPrecision; image-rendering:optimizeQuality; fill-rule:evenodd; clip-rule:evenodd" xmlns:xlink="http://www.w3.org/1999/xlink">
<g><path style="opacity:0.996" fill="#54d3a5" d="M 2121.5,625.5 C 2120.67,608.005 2120.17,590.338 2120,572.5C 2113.84,541.009 2095.67,519.842 2065.5,509C 2027.33,499.829 1997.17,511.329 1975,543.5C 1970.08,552.271 1966.74,561.604 1965,571.5C 1963.65,589.471 1963.15,607.471 1963.5,625.5C 1873.21,599.706 1807.38,544.706 1766,460.5C 1730.44,377.961 1729.44,294.961 1763,211.5C 1797.16,135.675 1852.66,81.842 1929.5,50C 2020.22,15.8211 2108.22,21.8211 2193.5,68C 2279.49,120.095 2329.66,196.261 2344,296.5C 2354.7,415.243 2312.53,510.076 2217.5,581C 2188.19,601.485 2156.19,616.318 2121.5,625.5 Z M 1931.5,171.5 C 1970.39,169.264 1998.22,185.597 2015,220.5C 2028.56,260.777 2018.39,293.611 1984.5,319C 1960.16,333.259 1934.82,335.259 1908.5,325C 1871.31,305.115 1856.14,274.282 1863,232.5C 1873.52,198.138 1896.35,177.805 1931.5,171.5 Z"/></g>
<g><path style="opacity:0.997" fill="#fefffe" d="M 1256.5,118.5 C 1258.17,118.5 1259.83,118.5 1261.5,118.5C 1261.17,241.502 1261.5,364.502 1262.5,487.5C 1333.23,457.437 1406.56,448.604 1482.5,461C 1582.77,479.626 1654.94,534.793 1699,626.5C 1728.93,695.148 1743.1,766.982 1741.5,842C 1743.47,918.949 1726.64,991.449 1691,1059.5C 1641.74,1143.36 1569.58,1196.86 1474.5,1220C 1434.06,1229.59 1393.06,1234.09 1351.5,1233.5C 1271.01,1232.17 1191.34,1223.33 1112.5,1207C 1091.96,1202.61 1071.62,1197.45 1051.5,1191.5C 1050.33,845.167 1050.17,498.834 1051,152.5C 1119.59,141.097 1188.09,129.763 1256.5,118.5 Z M 1366.5,634.5 C 1442.73,631.287 1491.9,665.954 1514,738.5C 1528.99,798.278 1529.99,858.278 1517,918.5C 1507.83,957.356 1489,990.523 1460.5,1018C 1427.79,1043.23 1390.62,1055.07 1349,1053.5C 1319.67,1053.08 1290.5,1050.74 1261.5,1046.5C 1261.33,919.166 1261.5,791.833 1262,664.5C 1283.55,651.869 1306.72,643.369 1331.5,639C 1343.26,637.072 1354.93,635.572 1366.5,634.5 Z"/></g>
<g><path style="opacity:0.996" fill="#fefffe" d="M 82.5,235.5 C 156.5,235.5 230.5,235.5 304.5,235.5C 304.333,442.5 304.5,649.5 305,856.5C 317.504,1005.35 397.004,1064.85 543.5,1035C 604.902,1015.26 642.069,973.762 655,910.5C 659.861,887.42 662.527,864.087 663,840.5C 663.5,638.834 663.667,437.167 663.5,235.5C 737.167,235.5 810.833,235.5 884.5,235.5C 884.667,446.834 884.5,658.167 884,869.5C 882.386,925.571 871.053,979.571 850,1031.5C 810.997,1118.83 746.163,1178 655.5,1209C 598.439,1227.15 539.939,1235.99 480,1235.5C 417.609,1236.3 357.109,1226.14 298.5,1205C 196.739,1164.65 130.906,1091.81 101,986.5C 90.0571,946.233 84.0571,905.233 83,863.5C 82.5,654.167 82.3333,444.834 82.5,235.5 Z"/></g>
<g><path style="opacity:0.993" fill="#fefefe" d="M 2121.5,625.5 C 2121.99,811.52 2121.49,997.52 2120,1183.5C 2113.6,1213.9 2095.77,1234.4 2066.5,1245C 2032.05,1254.07 2003.21,1245.23 1980,1218.5C 1970.94,1206.34 1965.61,1192.67 1964,1177.5C 1963.5,993.5 1963.33,809.5 1963.5,625.5C 1963.15,607.471 1963.65,589.471 1965,571.5C 1966.74,561.604 1970.08,552.271 1975,543.5C 1997.17,511.329 2027.33,499.829 2065.5,509C 2095.67,519.842 2113.84,541.009 2120,572.5C 2120.17,590.338 2120.67,608.005 2121.5,625.5 Z"/></g>
<g><path style="opacity:0.98" fill="#fefffe" d="M 201.5,1356.5 C 232.384,1354.8 260.717,1362.3 286.5,1379C 309.658,1395.47 322.325,1417.97 324.5,1446.5C 305.833,1446.5 287.167,1446.5 268.5,1446.5C 266.314,1431.96 258.98,1420.8 246.5,1413C 219.614,1398.08 193.614,1399.41 168.5,1417C 151.036,1434.44 141.536,1455.61 140,1480.5C 136.442,1509.72 142.442,1536.72 158,1561.5C 178.714,1586.47 204.547,1593.64 235.5,1583C 258.86,1572.8 271.526,1554.97 273.5,1529.5C 254.167,1529.5 234.833,1529.5 215.5,1529.5C 215.5,1514.83 215.5,1500.17 215.5,1485.5C 252.167,1485.5 288.833,1485.5 325.5,1485.5C 325.5,1532.17 325.5,1578.83 325.5,1625.5C 310.167,1625.5 294.833,1625.5 279.5,1625.5C 278.763,1617.53 278.263,1609.53 278,1601.5C 269.847,1613.31 259.013,1621.81 245.5,1627C 177.113,1647.05 127.28,1625.22 96,1561.5C 76.1947,1511.08 78.528,1461.75 103,1413.5C 126.113,1377.92 158.947,1358.92 201.5,1356.5 Z"/></g>
<g><path style="opacity:0.982" fill="#fefffe" d="M 1110.5,1356.5 C 1190.57,1355.4 1234.74,1394.73 1243,1474.5C 1246.74,1507.06 1243.07,1538.72 1232,1569.5C 1213.1,1609.73 1181.26,1631.23 1136.5,1634C 1109.89,1636.63 1084.22,1632.97 1059.5,1623C 1026.1,1605.9 1005.94,1578.73 999,1541.5C 991.093,1501.63 994.093,1462.63 1008,1424.5C 1028.5,1381.49 1062.66,1358.82 1110.5,1356.5 Z M 1114.5,1405.5 C 1151.79,1404.89 1175.29,1422.56 1185,1458.5C 1190.93,1484.19 1190.93,1509.85 1185,1535.5C 1171.28,1576.28 1143.12,1592.78 1100.5,1585C 1074.16,1578.22 1058.33,1561.39 1053,1534.5C 1047.02,1504.7 1048.69,1475.36 1058,1446.5C 1068.61,1421.38 1087.44,1407.71 1114.5,1405.5 Z"/></g>
<g><path style="opacity:0.983" fill="#fefffe" d="M 557.5,1365.5 C 607.862,1365.03 658.196,1365.53 708.5,1367C 740.405,1373.24 760.239,1392.07 768,1423.5C 772.732,1446.18 768.399,1466.84 755,1485.5C 748.597,1492.28 741.097,1497.45 732.5,1501C 748.242,1505.41 757.742,1515.57 761,1531.5C 762.454,1562.8 762.954,1594.13 762.5,1625.5C 744.5,1625.5 726.5,1625.5 708.5,1625.5C 708.667,1600.16 708.5,1574.83 708,1549.5C 705.614,1534.45 696.781,1526.28 681.5,1525C 658.169,1524.5 634.836,1524.33 611.5,1524.5C 611.5,1558.17 611.5,1591.83 611.5,1625.5C 593.5,1625.5 575.5,1625.5 557.5,1625.5C 557.5,1538.83 557.5,1452.17 557.5,1365.5 Z M 611.5,1411.5 C 639.209,1411.04 666.876,1411.54 694.5,1413C 710.474,1417.83 718.141,1428.66 717.5,1445.5C 717.081,1465.75 706.748,1476.92 686.5,1479C 661.502,1479.5 636.502,1479.67 611.5,1479.5C 611.5,1456.83 611.5,1434.17 611.5,1411.5 Z"/></g>
<g><path style="opacity:0.983" fill="#fefffe" d="M 1474.5,1365.5 C 1493.17,1365.5 1511.83,1365.5 1530.5,1365.5C 1530.02,1427.87 1530.52,1490.2 1532,1552.5C 1537.87,1576.2 1553.04,1588.2 1577.5,1588.5C 1592.14,1589.23 1604.98,1584.9 1616,1575.5C 1620.91,1569.67 1624.25,1563 1626,1555.5C 1627.48,1492.2 1627.98,1428.87 1627.5,1365.5C 1646.5,1365.5 1665.5,1365.5 1684.5,1365.5C 1684.67,1425.5 1684.5,1485.5 1684,1545.5C 1681.96,1591.86 1658.46,1620.36 1613.5,1631C 1584.48,1636.73 1555.81,1635.39 1527.5,1627C 1496.02,1614.5 1478.52,1591.34 1475,1557.5C 1474.5,1493.5 1474.33,1429.5 1474.5,1365.5 Z"/></g>
<g><path style="opacity:0.979" fill="#fefffe" d="M 1917.5,1365.5 C 1959.83,1365.33 2002.17,1365.5 2044.5,1366C 2083.68,1372.17 2107.18,1394.67 2115,1433.5C 2120.31,1464.58 2111.81,1491.08 2089.5,1513C 2078.34,1521.91 2065.67,1527.58 2051.5,1530C 2025.53,1531.43 1999.53,1531.93 1973.5,1531.5C 1973.5,1562.83 1973.5,1594.17 1973.5,1625.5C 1954.83,1625.5 1936.17,1625.5 1917.5,1625.5C 1917.5,1538.83 1917.5,1452.17 1917.5,1365.5 Z M 1973.5,1411.5 C 1993.84,1411.33 2014.17,1411.5 2034.5,1412C 2059.1,1416.62 2069.93,1431.45 2067,1456.5C 2062.63,1474.53 2051.13,1484.36 2032.5,1486C 2012.84,1486.5 1993.17,1486.67 1973.5,1486.5C 1973.5,1461.5 1973.5,1436.5 1973.5,1411.5 Z"/></g>
</svg>
