<?xml version="1.0" encoding="UTF-8"?>
<!DOCTYPE svg PUBLIC "-//W3C//DTD SVG 1.1//EN" "http://www.w3.org/Graphics/SVG/1.1/DTD/svg11.dtd">
<svg xmlns="http://www.w3.org/2000/svg" version="1.1" width="2374px" height="1648px" style="shape-rendering:geometricPrecision; text-rendering:geometricPrecision; image-rendering:optimizeQuality; fill-rule:evenodd; clip-rule:evenodd" xmlns:xlink="http://www.w3.org/1999/xlink">
<g><path style="opacity:0.996" fill="#53d2a4" d="M 2087.5,620.5 C 2086.67,603.005 2086.17,585.338 2086,567.5C 2079.19,532.351 2058.35,510.517 2023.5,502C 1983.37,497.145 1954.2,512.645 1936,548.5C 1933.72,554.339 1932.05,560.339 1931,566.5C 1929.65,584.471 1929.15,602.471 1929.5,620.5C 1839.21,594.706 1773.38,539.706 1732,455.5C 1696.44,372.961 1695.44,289.961 1729,206.5C 1763.16,130.675 1818.66,76.842 1895.5,45C 1986.22,10.8211 2074.22,16.8211 2159.5,63C 2245.49,115.095 2295.66,191.261 2310,291.5C 2320.7,410.243 2278.53,505.076 2183.5,576C 2154.19,596.485 2122.19,611.318 2087.5,620.5 Z M 1897.5,166.5 C 1936.39,164.264 1964.22,180.597 1981,215.5C 1994.56,255.777 1984.39,288.611 1950.5,314C 1926.16,328.259 1900.82,330.259 1874.5,320C 1837.31,300.115 1822.14,269.282 1829,227.5C 1839.52,193.138 1862.35,172.805 1897.5,166.5 Z"/></g>
<g><path style="opacity:0.997" fill="#1c1d1a" d="M 1222.5,113.5 C 1224.17,113.5 1225.83,113.5 1227.5,113.5C 1227.17,236.502 1227.5,359.502 1228.5,482.5C 1299.23,452.437 1372.56,443.604 1448.5,456C 1548.77,474.626 1620.94,529.793 1665,621.5C 1694.93,690.148 1709.1,761.982 1707.5,837C 1709.47,913.949 1692.64,986.449 1657,1054.5C 1607.74,1138.36 1535.58,1191.86 1440.5,1215C 1400.06,1224.59 1359.06,1229.09 1317.5,1228.5C 1237.01,1227.17 1157.34,1218.33 1078.5,1202C 1057.96,1197.61 1037.62,1192.45 1017.5,1186.5C 1016.33,840.167 1016.17,493.834 1017,147.5C 1085.59,136.097 1154.09,124.763 1222.5,113.5 Z M 1332.5,629.5 C 1408.73,626.287 1457.9,660.954 1480,733.5C 1494.99,793.278 1495.99,853.278 1483,913.5C 1473.83,952.356 1455,985.523 1426.5,1013C 1393.79,1038.23 1356.62,1050.07 1315,1048.5C 1285.67,1048.08 1256.5,1045.74 1227.5,1041.5C 1227.33,914.166 1227.5,786.833 1228,659.5C 1249.55,646.869 1272.72,638.369 1297.5,634C 1309.26,632.072 1320.93,630.572 1332.5,629.5 Z"/></g>
<g><path style="opacity:0.996" fill="#1c1d1a" d="M 48.5,230.5 C 122.5,230.5 196.5,230.5 270.5,230.5C 270.333,437.5 270.5,644.5 271,851.5C 283.504,1000.35 363.004,1059.85 509.5,1030C 570.902,1010.26 608.069,968.762 621,905.5C 625.861,882.42 628.527,859.087 629,835.5C 629.5,633.834 629.667,432.167 629.5,230.5C 703.167,230.5 776.833,230.5 850.5,230.5C 850.667,441.834 850.5,653.167 850,864.5C 848.386,920.571 837.053,974.571 816,1026.5C 776.997,1113.83 712.163,1173 621.5,1204C 564.439,1222.15 505.939,1230.99 446,1230.5C 383.609,1231.3 323.109,1221.14 264.5,1200C 162.739,1159.65 96.9056,1086.81 67,981.5C 56.0571,941.233 50.0571,900.233 49,858.5C 48.5,649.167 48.3333,439.834 48.5,230.5 Z"/></g>
<g><path style="opacity:0.993" fill="#1d1d1b" d="M 2087.5,620.5 C 2087.99,806.52 2087.49,992.52 2086,1178.5C 2079.6,1208.9 2061.77,1229.4 2032.5,1240C 1998.05,1249.07 1969.21,1240.23 1946,1213.5C 1936.94,1201.34 1931.61,1187.67 1930,1172.5C 1929.5,988.5 1929.33,804.5 1929.5,620.5C 1929.15,602.471 1929.65,584.471 1931,566.5C 1932.05,560.339 1933.72,554.339 1936,548.5C 1954.2,512.645 1983.37,497.145 2023.5,502C 2058.35,510.517 2079.19,532.351 2086,567.5C 2086.17,585.338 2086.67,603.005 2087.5,620.5 Z"/></g>
<g><path style="opacity:0.98" fill="#1c1d1a" d="M 167.5,1351.5 C 198.384,1349.8 226.717,1357.3 252.5,1374C 275.658,1390.47 288.325,1412.97 290.5,1441.5C 271.833,1441.5 253.167,1441.5 234.5,1441.5C 232.314,1426.96 224.98,1415.8 212.5,1408C 185.614,1393.08 159.614,1394.41 134.5,1412C 117.036,1429.44 107.536,1450.61 106,1475.5C 102.442,1504.72 108.442,1531.72 124,1556.5C 144.714,1581.47 170.547,1588.64 201.5,1578C 224.86,1567.8 237.526,1549.97 239.5,1524.5C 220.167,1524.5 200.833,1524.5 181.5,1524.5C 181.5,1509.83 181.5,1495.17 181.5,1480.5C 218.167,1480.5 254.833,1480.5 291.5,1480.5C 291.5,1527.17 291.5,1573.83 291.5,1620.5C 276.167,1620.5 260.833,1620.5 245.5,1620.5C 244.763,1612.53 244.263,1604.53 244,1596.5C 235.847,1608.31 225.013,1616.81 211.5,1622C 143.113,1642.05 93.2801,1620.22 62,1556.5C 42.1947,1506.08 44.528,1456.75 69,1408.5C 92.1133,1372.92 124.947,1353.92 167.5,1351.5 Z"/></g>
<g><path style="opacity:0.982" fill="#1c1d1a" d="M 1076.5,1351.5 C 1156.57,1350.4 1200.74,1389.73 1209,1469.5C 1212.74,1502.06 1209.07,1533.72 1198,1564.5C 1179.1,1604.73 1147.26,1626.23 1102.5,1629C 1075.89,1631.63 1050.22,1627.97 1025.5,1618C 992.102,1600.9 971.935,1573.73 965,1536.5C 957.093,1496.63 960.093,1457.63 974,1419.5C 994.496,1376.49 1028.66,1353.82 1076.5,1351.5 Z M 1080.5,1400.5 C 1117.79,1399.89 1141.29,1417.56 1151,1453.5C 1156.93,1479.19 1156.93,1504.85 1151,1530.5C 1137.28,1571.28 1109.12,1587.78 1066.5,1580C 1040.16,1573.22 1024.33,1556.39 1019,1529.5C 1013.02,1499.7 1014.69,1470.36 1024,1441.5C 1034.61,1416.38 1053.44,1402.71 1080.5,1400.5 Z"/></g>
<g><path style="opacity:0.983" fill="#1c1d1a" d="M 523.5,1360.5 C 573.862,1360.03 624.196,1360.53 674.5,1362C 706.405,1368.24 726.239,1387.07 734,1418.5C 738.732,1441.18 734.399,1461.84 721,1480.5C 714.597,1487.28 707.097,1492.45 698.5,1496C 714.242,1500.41 723.742,1510.57 727,1526.5C 728.454,1557.8 728.954,1589.13 728.5,1620.5C 710.5,1620.5 692.5,1620.5 674.5,1620.5C 674.667,1595.16 674.5,1569.83 674,1544.5C 671.614,1529.45 662.781,1521.28 647.5,1520C 624.169,1519.5 600.836,1519.33 577.5,1519.5C 577.5,1553.17 577.5,1586.83 577.5,1620.5C 559.5,1620.5 541.5,1620.5 523.5,1620.5C 523.5,1533.83 523.5,1447.17 523.5,1360.5 Z M 577.5,1406.5 C 605.209,1406.04 632.876,1406.54 660.5,1408C 676.474,1412.83 684.141,1423.66 683.5,1440.5C 683.081,1460.75 672.748,1471.92 652.5,1474C 627.502,1474.5 602.502,1474.67 577.5,1474.5C 577.5,1451.83 577.5,1429.17 577.5,1406.5 Z"/></g>
<g><path style="opacity:0.983" fill="#1c1d1a" d="M 1440.5,1360.5 C 1459.17,1360.5 1477.83,1360.5 1496.5,1360.5C 1496.02,1422.87 1496.52,1485.2 1498,1547.5C 1503.87,1571.2 1519.04,1583.2 1543.5,1583.5C 1558.14,1584.23 1570.98,1579.9 1582,1570.5C 1586.91,1564.67 1590.25,1558 1592,1550.5C 1593.48,1487.2 1593.98,1423.87 1593.5,1360.5C 1612.5,1360.5 1631.5,1360.5 1650.5,1360.5C 1650.67,1420.5 1650.5,1480.5 1650,1540.5C 1647.96,1586.86 1624.46,1615.36 1579.5,1626C 1550.48,1631.73 1521.81,1630.39 1493.5,1622C 1462.02,1609.5 1444.52,1586.34 1441,1552.5C 1440.5,1488.5 1440.33,1424.5 1440.5,1360.5 Z"/></g>
<g><path style="opacity:0.979" fill="#1c1d1a" d="M 1883.5,1360.5 C 1925.83,1360.33 1968.17,1360.5 2010.5,1361C 2049.68,1367.17 2073.18,1389.67 2081,1428.5C 2086.31,1459.58 2077.81,1486.08 2055.5,1508C 2044.34,1516.91 2031.67,1522.58 2017.5,1525C 1991.53,1526.43 1965.53,1526.93 1939.5,1526.5C 1939.5,1557.83 1939.5,1589.17 1939.5,1620.5C 1920.83,1620.5 1902.17,1620.5 1883.5,1620.5C 1883.5,1533.83 1883.5,1447.17 1883.5,1360.5 Z M 1939.5,1406.5 C 1959.84,1406.33 1980.17,1406.5 2000.5,1407C 2025.1,1411.62 2035.93,1426.45 2033,1451.5C 2028.63,1469.53 2017.13,1479.36 1998.5,1481C 1978.84,1481.5 1959.17,1481.67 1939.5,1481.5C 1939.5,1456.5 1939.5,1431.5 1939.5,1406.5 Z"/></g>
</svg>
